# xmcd
#
# Track frame offsets:
#	150
#	14983
#	25395
#	40318
#	55680
#	67078
#	83578
#	97303
#	108195
#	130335
#	156675
#	175225
#	189265
#	198733
#	224325
#	241233
#
# Disc length: 3394
#
# Revision: 4
# Processed by: cddbd v1.5.1PL0 Copyright (c) Steve Scherf et al.
# Submitted via: CDex 1.51
# Normalized: r3:TDELIM( - )
#
DISCID=ee0d4010
DTITLE=Various Artist - Sweet Soul Music CD4
DYEAR=1992
DGENRE=Soul
TTITLE0=Harald Melvin and The Blue Notes - Satisfaction guaranteed
TTITLE1=Sam and Dave - Soul sisterr brown sugar
TTITLE2=Soulful Dynamics - Daddy, don't go
TTITLE3=Wilson Pickett - Precious, precious
TTITLE4=Carol Douglas - Light my fire
TTITLE5=Ike and Tina Turner - Early in the morning
TTITLE6=Percy Sledge - My special prayer
TTITLE7=Joe Tex - Could this be love
TTITLE8=The Three Degrees - Love train
TTITLE9=Osibisa - Pata pata
TTITLE10=Solomon Burke - Please come back home to me
TTITLE11=Wilson Pickett - It's too late
TTITLE12=Ray Charles - Busted
TTITLE13=James Brown - For your precious love
TTITLE14=Hot Chocolate - Get it right
TTITLE15=Mac And Katie Kissoon - It's all over now
EXTD=YEAR: 1992
EXTT0=Harald Malvin and The Blue notes\n
EXTT1=Sam and Dave\n
EXTT2=Soulfull Dynamics\n
EXTT3=Wilson Pickett\n
EXTT4=Carol Douglas\n
EXTT5=Ike and Tina Turner\n
EXTT6=Percy Sledge\n
EXTT7=Joe Tex\n
EXTT8=The Three Degrees\n
EXTT9=Osibisa\n
EXTT10=Solomon Burke\n
EXTT11=Wilson Pickett\n
EXTT12=Ray Charles\n
EXTT13=James Brown\n
EXTT14=Hot Chocolate\n
EXTT15=Mac and Katie Kissoon\n
PLAYORDER=
